<mxfile host="www.draw.io" modified="2020-04-06T13:07:02.882Z" agent="5.0 (X11; Linux x86_64) AppleWebKit/537.36 (KHTML, like Gecko) Chrome/77.0.3865.75 Safari/537.36" etag="KZsP50bxOG74rDjtgCSA" version="12.9.8" type="github">
  <diagram id="GhOH-8NtaMhiu63URkkN" name="Page-1">
    <mxGraphModel dx="1043" dy="416" grid="1" gridSize="10" guides="1" tooltips="1" connect="1" arrows="1" fold="1" page="1" pageScale="1" pageWidth="827" pageHeight="1169" math="0" shadow="0">
      <root>
        <mxCell id="0" />
        <mxCell id="1" parent="0" />
        <mxCell id="aWA6KQ6PGl2lL4dyGWnu-21" value="" style="rounded=0;whiteSpace=wrap;html=1;fillColor=#FFF2CC;" vertex="1" parent="1">
          <mxGeometry x="170" y="100" width="510" height="250" as="geometry" />
        </mxCell>
        <mxCell id="aWA6KQ6PGl2lL4dyGWnu-9" value="" style="edgeStyle=orthogonalEdgeStyle;rounded=0;orthogonalLoop=1;jettySize=auto;html=1;entryX=0.5;entryY=0;entryDx=0;entryDy=0;" edge="1" parent="1" source="aWA6KQ6PGl2lL4dyGWnu-2" target="aWA6KQ6PGl2lL4dyGWnu-14">
          <mxGeometry relative="1" as="geometry">
            <mxPoint x="560" y="150" as="targetPoint" />
          </mxGeometry>
        </mxCell>
        <mxCell id="aWA6KQ6PGl2lL4dyGWnu-2" value="手势检测模型CPM" style="shape=process;whiteSpace=wrap;html=1;backgroundOutline=1;" vertex="1" parent="1">
          <mxGeometry x="360" y="120" width="120" height="60" as="geometry" />
        </mxCell>
        <mxCell id="aWA6KQ6PGl2lL4dyGWnu-23" value="" style="edgeStyle=orthogonalEdgeStyle;rounded=0;orthogonalLoop=1;jettySize=auto;html=1;" edge="1" parent="1" source="aWA6KQ6PGl2lL4dyGWnu-3">
          <mxGeometry relative="1" as="geometry">
            <mxPoint x="320" y="290" as="targetPoint" />
          </mxGeometry>
        </mxCell>
        <mxCell id="aWA6KQ6PGl2lL4dyGWnu-3" value="手势分类模型 MobileNet" style="shape=process;whiteSpace=wrap;html=1;backgroundOutline=1;" vertex="1" parent="1">
          <mxGeometry x="360" y="260" width="120" height="60" as="geometry" />
        </mxCell>
        <mxCell id="aWA6KQ6PGl2lL4dyGWnu-6" value="" style="edgeStyle=orthogonalEdgeStyle;rounded=0;orthogonalLoop=1;jettySize=auto;html=1;" edge="1" parent="1" source="aWA6KQ6PGl2lL4dyGWnu-4" target="aWA6KQ6PGl2lL4dyGWnu-5">
          <mxGeometry relative="1" as="geometry" />
        </mxCell>
        <mxCell id="aWA6KQ6PGl2lL4dyGWnu-4" value="视频" style="rounded=0;whiteSpace=wrap;html=1;" vertex="1" parent="1">
          <mxGeometry x="20" y="120" width="120" height="60" as="geometry" />
        </mxCell>
        <mxCell id="aWA6KQ6PGl2lL4dyGWnu-13" style="edgeStyle=orthogonalEdgeStyle;rounded=0;orthogonalLoop=1;jettySize=auto;html=1;entryX=0;entryY=0.5;entryDx=0;entryDy=0;" edge="1" parent="1" source="aWA6KQ6PGl2lL4dyGWnu-5" target="aWA6KQ6PGl2lL4dyGWnu-2">
          <mxGeometry relative="1" as="geometry" />
        </mxCell>
        <mxCell id="aWA6KQ6PGl2lL4dyGWnu-5" value="检测帧" style="rounded=0;whiteSpace=wrap;html=1;" vertex="1" parent="1">
          <mxGeometry x="200" y="120" width="120" height="60" as="geometry" />
        </mxCell>
        <mxCell id="aWA6KQ6PGl2lL4dyGWnu-15" style="edgeStyle=orthogonalEdgeStyle;rounded=0;orthogonalLoop=1;jettySize=auto;html=1;exitX=0.5;exitY=1;exitDx=0;exitDy=0;entryX=1;entryY=0.5;entryDx=0;entryDy=0;" edge="1" parent="1" source="aWA6KQ6PGl2lL4dyGWnu-14" target="aWA6KQ6PGl2lL4dyGWnu-3">
          <mxGeometry relative="1" as="geometry" />
        </mxCell>
        <mxCell id="aWA6KQ6PGl2lL4dyGWnu-18" style="edgeStyle=orthogonalEdgeStyle;rounded=0;orthogonalLoop=1;jettySize=auto;html=1;entryX=0.5;entryY=1;entryDx=0;entryDy=0;" edge="1" parent="1" source="aWA6KQ6PGl2lL4dyGWnu-14" target="aWA6KQ6PGl2lL4dyGWnu-5">
          <mxGeometry relative="1" as="geometry" />
        </mxCell>
        <mxCell id="aWA6KQ6PGl2lL4dyGWnu-14" value="Resp &amp;gt; 阈值" style="rhombus;whiteSpace=wrap;html=1;" vertex="1" parent="1">
          <mxGeometry x="510" y="190" width="130" height="60" as="geometry" />
        </mxCell>
        <mxCell id="aWA6KQ6PGl2lL4dyGWnu-17" value="Resp、cut-img" style="text;html=1;strokeColor=none;fillColor=none;align=center;verticalAlign=middle;whiteSpace=wrap;rounded=0;" vertex="1" parent="1">
          <mxGeometry x="490" y="130" width="90" height="20" as="geometry" />
        </mxCell>
        <mxCell id="aWA6KQ6PGl2lL4dyGWnu-19" value="No" style="text;html=1;strokeColor=none;fillColor=none;align=center;verticalAlign=middle;whiteSpace=wrap;rounded=0;" vertex="1" parent="1">
          <mxGeometry x="340" y="200" width="120" height="20" as="geometry" />
        </mxCell>
        <mxCell id="aWA6KQ6PGl2lL4dyGWnu-20" value="Yes，Input cut-img" style="text;html=1;strokeColor=none;fillColor=none;align=center;verticalAlign=middle;whiteSpace=wrap;rounded=0;" vertex="1" parent="1">
          <mxGeometry x="580" y="260" width="70" height="20" as="geometry" />
        </mxCell>
        <mxCell id="aWA6KQ6PGl2lL4dyGWnu-26" value="" style="edgeStyle=orthogonalEdgeStyle;rounded=0;orthogonalLoop=1;jettySize=auto;html=1;" edge="1" parent="1" source="aWA6KQ6PGl2lL4dyGWnu-24" target="aWA6KQ6PGl2lL4dyGWnu-25">
          <mxGeometry relative="1" as="geometry" />
        </mxCell>
        <mxCell id="aWA6KQ6PGl2lL4dyGWnu-28" style="edgeStyle=orthogonalEdgeStyle;rounded=0;orthogonalLoop=1;jettySize=auto;html=1;exitX=0.5;exitY=0;exitDx=0;exitDy=0;entryX=0.5;entryY=1;entryDx=0;entryDy=0;" edge="1" parent="1" source="aWA6KQ6PGl2lL4dyGWnu-24" target="aWA6KQ6PGl2lL4dyGWnu-5">
          <mxGeometry relative="1" as="geometry">
            <mxPoint x="260" y="220" as="targetPoint" />
          </mxGeometry>
        </mxCell>
        <mxCell id="aWA6KQ6PGl2lL4dyGWnu-24" value="当前帧的手势" style="rounded=0;whiteSpace=wrap;html=1;fillColor=#FFFFFF;" vertex="1" parent="1">
          <mxGeometry x="200" y="260" width="120" height="60" as="geometry" />
        </mxCell>
        <mxCell id="aWA6KQ6PGl2lL4dyGWnu-31" value="" style="edgeStyle=orthogonalEdgeStyle;rounded=0;orthogonalLoop=1;jettySize=auto;html=1;" edge="1" parent="1" source="aWA6KQ6PGl2lL4dyGWnu-25" target="aWA6KQ6PGl2lL4dyGWnu-30">
          <mxGeometry relative="1" as="geometry" />
        </mxCell>
        <mxCell id="aWA6KQ6PGl2lL4dyGWnu-25" value="手势序列" style="rounded=0;whiteSpace=wrap;html=1;fillColor=#FFFFFF;" vertex="1" parent="1">
          <mxGeometry x="20" y="260" width="120" height="60" as="geometry" />
        </mxCell>
        <mxCell id="aWA6KQ6PGl2lL4dyGWnu-33" value="" style="edgeStyle=orthogonalEdgeStyle;rounded=0;orthogonalLoop=1;jettySize=auto;html=1;" edge="1" parent="1" source="aWA6KQ6PGl2lL4dyGWnu-30" target="aWA6KQ6PGl2lL4dyGWnu-32">
          <mxGeometry relative="1" as="geometry" />
        </mxCell>
        <mxCell id="aWA6KQ6PGl2lL4dyGWnu-30" value="后处理" style="rounded=0;whiteSpace=wrap;html=1;fillColor=#FFFFFF;" vertex="1" parent="1">
          <mxGeometry x="20" y="400" width="120" height="60" as="geometry" />
        </mxCell>
        <mxCell id="aWA6KQ6PGl2lL4dyGWnu-32" value="通过/不通过" style="rounded=0;whiteSpace=wrap;html=1;fillColor=#FFFFFF;" vertex="1" parent="1">
          <mxGeometry x="220" y="400" width="120" height="60" as="geometry" />
        </mxCell>
        <mxCell id="aWA6KQ6PGl2lL4dyGWnu-27" value="&lt;font style=&quot;font-size: 14px&quot;&gt;&lt;b&gt;Loop Over&lt;/b&gt;&lt;/font&gt;" style="text;html=1;strokeColor=none;fillColor=none;align=center;verticalAlign=middle;whiteSpace=wrap;rounded=0;" vertex="1" parent="1">
          <mxGeometry x="630" y="110" width="40" height="20" as="geometry" />
        </mxCell>
        <mxCell id="aWA6KQ6PGl2lL4dyGWnu-29" value="&lt;div&gt;&lt;meta http-equiv=&quot;content-type&quot; content=&quot;text/html; charset=utf-8&quot;&gt;&lt;span style=&quot;color: rgb(0, 0, 0); font-family: helvetica; font-size: 12px; font-style: normal; font-variant-ligatures: normal; font-variant-caps: normal; font-weight: 400; letter-spacing: normal; orphans: 2; text-align: center; text-indent: 0px; text-transform: none; widows: 2; word-spacing: 0px; -webkit-text-stroke-width: 0px; background-color: rgb(248, 249, 250); text-decoration-style: initial; text-decoration-color: initial; float: none; display: inline !important;&quot;&gt;Next Frame&lt;/span&gt;&lt;/div&gt;" style="text;whiteSpace=wrap;html=1;" vertex="1" parent="1">
          <mxGeometry x="260" y="190" width="90" height="30" as="geometry" />
        </mxCell>
      </root>
    </mxGraphModel>
  </diagram>
</mxfile>
